<svg xmlns="http://www.w3.org/2000/svg" viewBox="0 0 128 128">
  <path fill="#1572B6" d="M14.406 4l9.907 111.007 44.287 12.391 44.363-12.359 9.943-111.039h-108.5zm89.783 29.453l-37.189 10.362-.698.195-36.99-10.319 7.676 86.043 29.312 8.164 29.489-8.222 7.4-86.123zm-48.72 30.528l-.191.054-15.053 4.193-.287.081-15.028-4.274-1.396-15.629h32.971zm-31.929 16.452l-.146.462-.021.068-.154.432-5.821 64.971h11.494l-.568 6.358-5.808 1.617-5.924-16.521zm58.777-.003l-5.863 16.411-.57-6.364h11.489l-5.857-65.064-.155-.428-.024-.064-.15-.466zm-22.714 22.637l-.245.674-8.002 2.215-.399 4.453 8.509 2.371.244.069v-.001l8.512-2.373.394-4.398-8.013-2.415zm-1.012 11.315l-.334.332-7.196 2-1.08 12.038 8.333 2.363.332-.092 8.363-2.338-1.049-11.715-7.368-2.07zm-14.053 2.379l-.365.101-7.285 2.027-.845 9.438 8.233 2.313.36-.101 7.296-2.043.822-9.168-8.001-2.348zm28.104.018l-8.008 2.23-.829 9.251 8.244 2.32.352-.099 7.295-2.039.803-8.956-7.655-2.317zm-21.055 10.646l-.336.096-7.193 2-1.076 12.012 8.328 2.335.332-.092 8.363-2.34-1.055-11.782-7.363-2.109zm21.143 14.811l-.363.102-7.197 2-1.092 12.172 8.368 2.346.354-.099 7.291-2.033.991-11.065-7.102-2.319zm-14.046 2.332l-.372.104-7.2 2-1.087 12.112 8.354 2.354.364-.101 7.301-2.037.963-10.75-7.014-2.288z"/>
</svg>
