<svg xmlns="http://www.w3.org/2000/svg" viewBox="0 0 512 512" width="200" height="200">
  <rect x="48" y="48" width="416" height="416" rx="15%" fill="#E44D26"/>
  <path fill="#FFF" d="M376 48H136c-22.091 0-40 17.909-40 40v336c0 22.091 17.909 40 40 40h240c22.091 0 40-17.909 40-40V88c0-22.091-17.909-40-40-40zm-94.238 285.082c-4.71 11.164-14.237 17.502-25.762 17.502-14.136 0-22.922-9.994-22.922-22.508 0-19.494 13.207-30.963 34.164-45.762 10.189-7.256 17.035-13.6 17.035-22.335 0-11.256-8.524-18.6-22.707-18.6-14.177 0-23.378 7.886-27.496 19.881l-30.636-13.215c5.762-16.673 18.599-28.116 39.172-28.116 22.173 0 35.89 13.046 35.89 32.317 0 18.836-10.382 29.31-32.317 44.258-9.14 6.49-16.845 12.6-16.845 22.37 0 11.3 10.8 18.373 26.467 18.373 13.582 0 23.424-6.603 27.077-17.782l30.982 13.322zm-18.89-78.788c-.407-10.338-7.476-17.096-18.299-17.096-11.145 0-18.62 6.803-22.606 17.502l40.905-.406zm101.126 78.788c-4.71 11.164-14.237 17.502-25.762 17.502-14.136 0-22.922-9.994-22.922-22.508 0-19.494 13.207-30.963 34.164-45.762 10.189-7.256 17.035-13.6 17.035-22.335 0-11.256-8.524-18.6-22.707-18.6-14.177 0-23.378 7.886-27.496 19.881l-30.636-13.215c5.762-16.673 18.599-28.116 39.172-28.116 22.173 0 35.89 13.046 35.89 32.317 0 18.836-10.382 29.31-32.317 44.258-9.14 6.49-16.845 12.6-16.845 22.37 0 11.3 10.8 18.373 26.467 18.373 13.582 0 23.424-6.603 27.077-17.782l30.982 13.322zm-18.89-78.788c-.407-10.338-7.476-17.096-18.299-17.096-11.145 0-18.62 6.803-22.606 17.502l40.905-.406zm10.644-51.306c-12.285-8.816-27.93-13.502-45.585-13.502-32.276 0-55.8 19.326-55.8 47.364 0 32.97 26.87 47.454 56.93 47.454 18.65 0 34.007-5.176 45.398-13.608 7.142-5.047 10.8-11.698 10.8-19.522 0-11.446-9.219-17.004-20.653-17.004-15.073 0-25.937 8.308-30.796 21.803l45.845.407c.71-4.439 1.096-9.804 1.096-15.682.001-22.175-11.96-37.893-31.035-37.893z"/>
</svg>
