<svg xmlns="http://www.w3.org/2000/svg" viewBox="0 0 128 128">
  <path fill="#F7DF1E" d="M63.806 4.852c-30.398.002-55.08 24.684-55.08 55.083 0 30.399 24.682 55.08 55.08 55.08 30.398 0 55.08-24.681 55.08-55.08 0-30.399-24.682-55.081-55.08-55.083zM72.5 99.994c-3.453 2.422-7.521 3.635-12.318 3.635-6.157 0-11.39-2.33-15.696-6.992-4.308-4.662-6.463-10.314-6.463-16.956 0-6.803 2.155-12.512 6.463-17.127 4.308-4.615 9.541-6.922 15.696-6.922 4.797 0 8.865 1.213 12.318 3.636v2.869c-3.574-2.456-7.705-3.684-12.395-3.684-4.493 0-8.278 1.614-11.357 4.846-3.08 3.231-4.62 7.151-4.62 11.858 0 4.708 1.54 8.628 4.62 11.761 3.079 3.133 6.864 4.699 11.357 4.699 4.69 0 8.821-1.229 12.395-3.684v2.867zM89.996 82.882c0 4.188-1.487 7.75-4.463 10.687-2.975 2.938-6.538 4.407-10.688 4.407-4.166 0-7.729-1.469-10.687-4.407-2.958-2.937-4.438-6.499-4.438-10.687 0-4.163 1.48-7.712 4.438-10.648 2.958-2.938 6.52-4.407 10.687-4.407 4.15 0 7.713 1.469 10.688 4.407 2.976 2.936 4.463 6.485 4.463 10.648zm-2.049 0c0-3.507-.869-6.403-2.606-8.69-1.737-2.288-4.103-3.432-7.099-3.432-2.974 0-5.311 1.144-7.004 3.432-1.693 2.287-2.54 5.183-2.54 8.69 0 3.487.847 6.365 2.54 8.633 1.693 2.269 4.03 3.403 7.004 3.403 3.006 0 5.372-1.144 7.099-3.432 1.737-2.288 2.606-5.176 2.606-8.664z"/>
</svg>
